<svg width="297" height="199" viewBox="0 0 297 199" fill="none" xmlns="http://www.w3.org/2000/svg">
<path d="M203.128 26.2727H204.063L204.068 25.1541C206.171 25 207.374 23.7969 207.374 22.1861C207.374 20.3516 205.738 19.6406 204.445 19.3224L204.082 19.228L204.092 16.0362C205.022 16.1605 205.658 16.6776 205.753 17.4929H207.234C207.195 15.9766 205.942 14.843 204.097 14.6939L204.102 13.5455H203.168L203.163 14.7038C201.378 14.8828 200.07 15.9964 200.07 17.6023C200.07 19.0192 201.085 19.8494 202.72 20.2919L203.148 20.4062L203.138 23.7919C202.168 23.6726 201.418 23.1456 201.338 22.1861H199.797C199.891 23.9013 201.129 25.005 203.133 25.1541L203.128 26.2727ZM204.073 23.7919L204.082 20.6648C205.092 20.9432 205.852 21.3111 205.852 22.1712C205.852 23.0412 205.127 23.6527 204.073 23.7919ZM203.153 18.9794C202.412 18.7607 201.597 18.3679 201.602 17.5128C201.602 16.767 202.193 16.1854 203.158 16.0412L203.153 18.9794ZM212.933 14.8182H211.437L208.896 16.4787V17.9503L211.332 16.3594H211.392V25H212.933V14.8182ZM215.687 25H222.389V23.6825H217.805V23.608L219.829 21.4901C221.693 19.6058 222.225 18.706 222.225 17.5675C222.225 15.9318 220.893 14.679 218.974 14.679C217.07 14.679 215.677 15.9119 215.677 17.7713H217.144C217.139 16.6776 217.845 15.9616 218.944 15.9616C219.978 15.9616 220.763 16.598 220.763 17.6122C220.763 18.5121 220.226 19.1584 219.133 20.3168L215.687 23.8864V25ZM226.227 23.608H224.795L224.746 24.1648C224.631 25.5121 224.313 26.8693 224.179 27.4858H225.233C225.472 26.8345 225.998 25.343 226.153 24.1499L226.227 23.608ZM231.503 25.1392C233.552 25.1392 235.013 23.6925 235.008 21.7088C235.013 19.7401 233.641 18.3082 231.787 18.3082C231.031 18.3082 230.33 18.5966 229.932 18.9844H229.873L230.196 16.1357H234.516V14.8182H228.918L228.346 19.9489L229.753 20.1577C230.136 19.8146 230.822 19.581 231.439 19.581C232.647 19.5909 233.522 20.4957 233.522 21.7386C233.522 22.9616 232.672 23.8466 231.503 23.8466C230.519 23.8466 229.738 23.2202 229.659 22.3452H228.167C228.227 23.9659 229.634 25.1392 231.503 25.1392ZM240.369 25.169C242.72 25.169 244.098 23.25 244.098 19.9141C244.098 16.603 242.701 14.679 240.369 14.679C238.032 14.679 236.64 16.598 236.635 19.9141C236.635 23.245 238.012 25.1641 240.369 25.169ZM240.369 23.8416C238.992 23.8416 238.161 22.4595 238.161 19.9141C238.166 17.3786 238.997 15.9815 240.369 15.9815C241.736 15.9815 242.571 17.3786 242.571 19.9141C242.571 22.4595 241.741 23.8416 240.369 23.8416ZM249.406 25.169C251.758 25.169 253.135 23.25 253.135 19.9141C253.135 16.603 251.738 14.679 249.406 14.679C247.069 14.679 245.677 16.598 245.672 19.9141C245.672 23.245 247.049 25.1641 249.406 25.169ZM249.406 23.8416C248.029 23.8416 247.199 22.4595 247.199 19.9141C247.204 17.3786 248.034 15.9815 249.406 15.9815C250.773 15.9815 251.608 17.3786 251.608 19.9141C251.608 22.4595 250.778 23.8416 249.406 23.8416Z" fill="#343C6A"/>
<path d="M7.9023 186L8.85329 183.322H12.6757L13.6267 186H14.827L11.3554 176.545H10.1736L6.70202 186H7.9023ZM9.21338 182.307L10.7276 178.041H10.8014L12.3157 182.307H9.21338ZM20.6207 183.101C20.6207 184.43 19.6051 185.04 18.7926 185.04C17.8877 185.04 17.2414 184.375 17.2414 183.341V178.909H16.1519V183.415C16.1519 185.224 17.1122 186.092 18.4417 186.092C19.5127 186.092 20.2144 185.52 20.5468 184.8H20.6207V186H21.7102V178.909H20.6207V183.101ZM26.5679 188.807C28.2667 188.807 29.6332 188.031 29.6332 186.203V178.909H28.5807V180.036H28.4699C28.2298 179.666 27.7866 178.817 26.4017 178.817C24.6105 178.817 23.3733 180.239 23.3733 182.418C23.3733 184.634 24.6659 185.889 26.3832 185.889C27.7682 185.889 28.2113 185.077 28.4514 184.689H28.5437V186.129C28.5437 187.311 27.7128 187.847 26.5679 187.847C25.2799 187.847 24.8275 187.168 24.5366 186.776L23.6687 187.385C24.1119 188.128 24.9844 188.807 26.5679 188.807ZM26.5309 184.911C25.1645 184.911 24.4628 183.876 24.4628 182.399C24.4628 180.959 25.146 179.795 26.5309 179.795C27.8605 179.795 28.5622 180.866 28.5622 182.399C28.5622 183.969 27.842 184.911 26.5309 184.911Z" fill="#718EBF"/>
<path d="M65.4262 178.909H66.5341C66.4834 177.483 65.1677 176.416 63.3395 176.416C61.5299 176.416 60.108 177.469 60.108 179.057C60.108 180.331 61.0313 181.088 62.5086 181.513L63.6719 181.845C64.6691 182.122 65.5554 182.473 65.5554 183.415C65.5554 184.449 64.5583 185.132 63.2472 185.132C62.1208 185.132 61.1236 184.634 61.0313 183.562H59.8495C59.9603 185.114 61.216 186.166 63.2472 186.166C65.4262 186.166 66.6634 184.966 66.6634 183.433C66.6634 181.661 64.983 181.088 64.0043 180.83L63.0441 180.571C62.3424 180.386 61.216 180.017 61.216 179.001C61.216 178.097 62.0469 177.432 63.3026 177.432C64.4475 177.432 65.3154 177.977 65.4262 178.909ZM71.371 186.148C72.8114 186.148 73.8639 185.428 74.1963 184.357L73.1438 184.061C72.8668 184.8 72.2251 185.169 71.371 185.169C70.0923 185.169 69.2105 184.343 69.1598 182.824H74.3071V182.362C74.3071 179.722 72.7375 178.817 71.2603 178.817C69.3398 178.817 68.0657 180.331 68.0657 182.51C68.0657 184.689 69.3213 186.148 71.371 186.148ZM69.1598 181.882C69.2336 180.779 70.0138 179.795 71.2603 179.795C72.4421 179.795 73.1992 180.682 73.1992 181.882H69.1598ZM75.9644 188.659H77.0539V184.911H77.1463C77.3863 185.298 77.848 186.148 79.2144 186.148C80.9872 186.148 82.2244 184.726 82.2244 182.473C82.2244 180.239 80.9872 178.817 79.196 178.817C77.811 178.817 77.3863 179.666 77.1463 180.036H77.017V178.909H75.9644V188.659ZM77.0355 182.455C77.0355 180.866 77.7372 179.795 79.0667 179.795C80.4517 179.795 81.1349 180.959 81.1349 182.455C81.1349 183.969 80.4332 185.169 79.0667 185.169C77.7556 185.169 77.0355 184.061 77.0355 182.455Z" fill="#718EBF"/>
<path d="M121.179 181.273C121.179 178.281 119.425 176.416 117.006 176.416C114.586 176.416 112.832 178.281 112.832 181.273C112.832 184.264 114.586 186.129 117.006 186.129C119.425 186.129 121.179 184.264 121.179 181.273ZM120.071 181.273C120.071 183.729 118.723 185.058 117.006 185.058C115.288 185.058 113.94 183.729 113.94 181.273C113.94 178.817 115.288 177.487 117.006 177.487C118.723 177.487 120.071 178.817 120.071 181.273ZM125.837 186.148C127.406 186.148 128.441 185.188 128.625 183.932H127.536C127.333 184.707 126.686 185.169 125.837 185.169C124.544 185.169 123.713 184.098 123.713 182.455C123.713 180.848 124.563 179.795 125.837 179.795C126.797 179.795 127.369 180.386 127.536 181.033H128.625C128.441 179.703 127.314 178.817 125.818 178.817C123.898 178.817 122.624 180.331 122.624 182.491C122.624 184.615 123.843 186.148 125.837 186.148ZM133.302 178.909H131.787V177.21H130.698V178.909H129.627V179.832H130.698V184.264C130.698 185.501 131.695 186.092 132.618 186.092C133.025 186.092 133.283 186.018 133.431 185.963L133.209 184.984C133.117 185.003 132.969 185.04 132.729 185.04C132.249 185.04 131.787 184.892 131.787 183.969V179.832H133.302V178.909Z" fill="#718EBF"/>
<path d="M170.878 176.545H169.752V183.987H169.66L164.489 176.545H163.381V186H164.526V178.577H164.618L169.77 186H170.878V176.545ZM175.902 186.148C177.823 186.148 179.115 184.689 179.115 182.491C179.115 180.276 177.823 178.817 175.902 178.817C173.982 178.817 172.689 180.276 172.689 182.491C172.689 184.689 173.982 186.148 175.902 186.148ZM175.902 185.169C174.443 185.169 173.779 183.913 173.779 182.491C173.779 181.07 174.443 179.795 175.902 179.795C177.361 179.795 178.026 181.07 178.026 182.491C178.026 183.913 177.361 185.169 175.902 185.169ZM186.323 178.909H185.141L183.184 184.56H183.11L181.152 178.909H179.971L182.593 186H183.701L186.323 178.909Z" fill="#718EBF"/>
<path d="M218.477 186C221.357 186 222.982 184.209 222.982 181.254C222.982 178.318 221.357 176.545 218.606 176.545H215.559V186H218.477ZM216.704 184.984V177.561H218.532C220.748 177.561 221.874 178.964 221.874 181.254C221.874 183.562 220.748 184.984 218.403 184.984H216.704ZM227.728 186.148C229.168 186.148 230.221 185.428 230.553 184.357L229.501 184.061C229.224 184.8 228.582 185.169 227.728 185.169C226.449 185.169 225.567 184.343 225.517 182.824H230.664V182.362C230.664 179.722 229.094 178.817 227.617 178.817C225.697 178.817 224.423 180.331 224.423 182.51C224.423 184.689 225.678 186.148 227.728 186.148ZM225.517 181.882C225.591 180.779 226.371 179.795 227.617 179.795C228.799 179.795 229.556 180.682 229.556 181.882H225.517ZM235.202 186.148C236.772 186.148 237.806 185.188 237.99 183.932H236.901C236.698 184.707 236.051 185.169 235.202 185.169C233.909 185.169 233.078 184.098 233.078 182.455C233.078 180.848 233.928 179.795 235.202 179.795C236.162 179.795 236.735 180.386 236.901 181.033H237.99C237.806 179.703 236.679 178.817 235.184 178.817C233.263 178.817 231.989 180.331 231.989 182.491C231.989 184.615 233.208 186.148 235.202 186.148Z" fill="#718EBF"/>
<path d="M272.77 176.545V183.304C272.77 184.481 272.207 185.114 271.219 185.114C270.319 185.114 269.668 184.587 269.668 183.784H268.541C268.541 185.238 269.668 186.129 271.219 186.129C272.862 186.129 273.915 185.118 273.915 183.304V176.545H272.77ZM278.148 186.166C279.385 186.166 280.032 185.501 280.253 185.04H280.309V186H281.398V181.328C281.398 179.075 279.681 178.817 278.776 178.817C277.705 178.817 276.486 179.186 275.932 180.479L276.966 180.848C277.206 180.331 277.774 179.777 278.813 179.777C279.815 179.777 280.309 180.308 280.309 181.217V181.254C280.309 181.781 279.773 181.734 278.481 181.901C277.165 182.071 275.729 182.362 275.729 183.987C275.729 185.372 276.8 186.166 278.148 186.166ZM278.314 185.188C277.447 185.188 276.819 184.8 276.819 184.043C276.819 183.212 277.576 182.953 278.425 182.842C278.887 182.787 280.124 182.658 280.309 182.436V183.433C280.309 184.32 279.607 185.188 278.314 185.188ZM284.476 181.734C284.476 180.497 285.243 179.795 286.286 179.795C287.297 179.795 287.911 180.456 287.911 181.568V186H289V181.494C289 179.685 288.036 178.817 286.6 178.817C285.529 178.817 284.864 179.297 284.532 180.017H284.439V178.909H283.387V186H284.476V181.734Z" fill="#718EBF"/>
<rect y="71" width="37" height="93" rx="10" fill="#EDF0F7"/>
<rect x="52" y="22" width="37" height="142" rx="10" fill="#EDF0F7"/>
<rect x="104" y="68" width="37" height="96" rx="10" fill="#EDF0F7"/>
<rect x="156" y="115" width="37" height="49" rx="10" fill="#EDF0F7"/>
<g filter="url(#filter0_d_105_364)">
<rect x="208" y="35" width="37" height="129" rx="10" fill="#16DBCC"/>
</g>
<rect x="260" y="76" width="37" height="88" rx="10" fill="#EDF0F7"/>
<defs>
<filter id="filter0_d_105_364" x="173" y="0" width="107" height="199" filterUnits="userSpaceOnUse" color-interpolation-filters="sRGB">
<feFlood flood-opacity="0" result="BackgroundImageFix"/>
<feColorMatrix in="SourceAlpha" type="matrix" values="0 0 0 0 0 0 0 0 0 0 0 0 0 0 0 0 0 0 127 0" result="hardAlpha"/>
<feOffset/>
<feGaussianBlur stdDeviation="17.5"/>
<feColorMatrix type="matrix" values="0 0 0 0 0.0705882 0 0 0 0 0.533333 0 0 0 0 0.494771 0 0 0 0.2 0"/>
<feBlend mode="normal" in2="BackgroundImageFix" result="effect1_dropShadow_105_364"/>
<feBlend mode="normal" in="SourceGraphic" in2="effect1_dropShadow_105_364" result="shape"/>
</filter>
</defs>
</svg>
